<svg xmlns="http://www.w3.org/2000/svg" width="32" height="32" fill="none"><rect width="32" height="32" fill="#EEE" rx="8"/><path fill="#111" d="M5.826 20.98a4.476 4.476 0 0 1-.814-2.89v-4.18a4.545 4.545 0 0 1 .802-2.918c.538-.665 1.458-.996 2.76-.992 1.302.004 2.183.295 2.644.875.562.718.837 1.605.773 2.501v.98H9.585v-1.063a5.348 5.348 0 0 0-.075-.836.922.922 0 0 0-.273-.53.918.918 0 0 0-.669-.205.881.881 0 0 0-.504.076.834.834 0 0 0-.367.341c-.153.392-.22.809-.198 1.226v5.304c-.026.42.051.84.227 1.225.084.14.208.252.358.324.15.072.318.101.484.083a.814.814 0 0 0 .477-.08.768.768 0 0 0 .337-.332 3.13 3.13 0 0 0 .18-1.22v-1.115h2.406v.964a3.915 3.915 0 0 1-.715 2.568c-.511.613-1.395.914-2.65.914s-2.237-.334-2.777-1.02ZM15.21 10h2.597L20 22h-2.16l-.389-2.651h-1.82l-.438 2.634H13L15.21 10Zm2 7.84-.69-4.823-.686 4.823h1.376ZM21.813 11.808H20V10h6v1.808h-1.791V22h-2.401l.005-10.192Z"/></svg>