<svg width="202" height="59" viewBox="0 0 202 59" fill="none" xmlns="http://www.w3.org/2000/svg"><g clip-path="url(#a)"><path d="M59.883 23.806A25.432 25.432 0 0 0 51.83 13.43a25.725 25.725 0 0 0-12.193-5.02 25.803 25.803 0 0 0-13.093 1.671 25.59 25.59 0 0 0-10.515 7.916 25.296 25.296 0 0 0-5.144 12.06 25.212 25.212 0 0 0 1.595 12.997 25.423 25.423 0 0 0 7.909 10.484 25.719 25.719 0 0 0 12.122 5.184 113.04 113.04 0 0 1-1.69-6.794 32.41 32.41 0 0 0 4.76 2.529s.12 2.142.28 4.533c1.789.03 3.575-.126 5.33-.466a2.104 2.104 0 0 1 0-.754c.29-1.855 1.09-5.198 1.25-7.35a15.114 15.114 0 0 0 2.9-3.68l-.06.436c-.55 4.226-1.7 8.74-2.4 9.989a5.536 5.536 0 0 1-.83 1.14 25.73 25.73 0 0 0 9.941-4.727 25.48 25.48 0 0 0 7.021-8.43 25.252 25.252 0 0 0 .87-21.341Zm-1.47 3.76c-.44.426-1.35.714-1.5-.576a34.09 34.09 0 0 1-.19-2.192s-1.93-3.402-2.65-3.442c-.72-.04-5.831 3.442-7.181 4.96-1.17 1.28-1.4 1.19-1.4 3.442 0 1.696.22 8.104.1 13.004l-8.15 2.153c-2.562.729-5.168 1.299-7.801 1.706l-1-5.783h-.14l-2.57-13.064s-3.81-1.428-5.21-1.815a3.788 3.788 0 0 0-4 .625 5.032 5.032 0 0 0-1.285 1.722 4.995 4.995 0 0 0-.446 2.097c.212.46.373.943.48 1.438.05.476-1.2.426-2 .426s-.92-1.428-.29-3.104c.492-1.29 1.1-2.531 1.82-3.71a11.776 11.776 0 0 1 2.07-2.867s.14-.337 1.25-.238c1.11.1 7.28.427 7.28.427l.05-2.252a143.93 143.93 0 0 1 20.242-1.33v1.816a22.671 22.671 0 0 1 8.14-1.984.916.916 0 0 1 .77.387c.34.427 2.41 2.976 2.65 3.343a27.73 27.73 0 0 1 1.83 2.976 6.167 6.167 0 0 1-.87 1.825v.01Z" fill="#FDC305"/><path d="M56.463 21.495c.47.595.88 1.121 1 1.28a27.74 27.74 0 0 1 1.83 2.976c-.19.63-.48 1.226-.86 1.765-.44.427-1.35.714-1.5-.575-.15-1.29-.21-2.143-.21-2.143s-1.93-3.402-2.65-3.442c-.72-.04-5.83 3.442-7.18 4.96-1.17 1.28-1.4 1.19-1.4 3.442 0 1.488.17 6.596.13 11.14 1.81.198 4.47.694 5.27 1.864 0 0-.29-7.122 7.81-3.392 0 0 .28-9.711 11.46-7.221a43.671 43.671 0 0 0-13.7-10.654ZM45.932 19.194a89.015 89.015 0 0 0-1.4-16.397s-.15-1.29-.87-.238a14.057 14.057 0 0 0-1.2 3.968 71.461 71.461 0 0 0-12.82.337c-.82-2.728-2.22-3.968-2.89-3.64-.67.327-.75 3.253-.75 3.253l-.33 14.046a143.942 143.942 0 0 1 20.26-1.33Z" fill="#F06351"/><path d="M45.352 46.74c.13-1.062.2-2.47.24-4.028l-8.15 2.153a64.434 64.434 0 0 1-7.8 1.756l1.11 4.96c0 .108 0 .218.07.327a32.398 32.398 0 0 0 4.76 2.53 42.484 42.484 0 0 0 6.88-4.098v.06a15.115 15.115 0 0 0 2.89-3.66Z" fill="#E55645"/><path d="M32.002 16.09c-.05-.1 1 .674 1.41.912.41.238.61.416.61.585 0 .169-.26.337-.62.337s-.92-.119-1-.258c-.08-.139.6 0 .94 0h.29a8.052 8.052 0 0 1-1.63-1.577ZM39.502 16.198s-1 1.27-1.09 1.33c-.09.059-.17.337.19.287a8.146 8.146 0 0 0 1.22-.278c.11-.06.07-.198-.12-.178-.19.02-.68.05-1 .109l.85-1.26s.03-.119-.05-.01ZM36.362 22.259a2.293 2.293 0 0 0 1.09-.992c.28-.655 0-.903-.44-.992-.606-.11-1.23.01-1.75.337-.39.367-.34.724 0 .992a5.17 5.17 0 0 0 1.1.655Z" fill="#000"/><path d="M36.002 23.509c-.115.225-.271.427-.46.595-.285.227-.635.36-1 .377a2.193 2.193 0 0 1-1.54-.437 1.995 1.995 0 0 1-.53-.446 1.002 1.002 0 0 0-.36-.248s.75 4.077 2.57 4.731c1.82.655 2.16-.753 2.21-1.13a5.55 5.55 0 0 0-.82-3.214c0-.298-.02-.1-.07-.228Z" fill="#F06351"/><path d="M34.301 24.64a3.518 3.518 0 0 1-2.35-1.419.148.148 0 0 1 0-.198.14.14 0 0 1 .155-.031.14.14 0 0 1 .045.03 3.209 3.209 0 0 0 2.11 1.3 2.121 2.121 0 0 0 1.64-.992l.14-.188.1.218s.38.754 1 .794c.62.04 1.06-.417 1.63-1.28a.144.144 0 0 1 .2-.04.143.143 0 0 1 .04.199c-.666.972-1.296 1.438-1.89 1.398a1.557 1.557 0 0 1-1.12-.724 2.254 2.254 0 0 1-1.7.933Z" fill="#000"/><path d="M36.262 37.99c2.07 0 3.75-1.665 3.75-3.719s-1.68-3.72-3.75-3.72c-2.072 0-3.75 1.666-3.75 3.72 0 2.054 1.678 3.72 3.75 3.72Z" fill="#FDC305"/><path d="m41.232 31.246-3.13 1.3 1.15-5.585-7.5 9.68 3.13-1.298-1.15 5.594 7.5-9.691Zm-7.39 3.799 4.16-5.366-.81 3.967 2-.813-4.19 5.376.81-3.968-1.97.804ZM32.441 33.587c.62 0 1.12-.498 1.12-1.111 0-.614-.5-1.111-1.12-1.111-.618 0-1.12.497-1.12 1.11 0 .614.502 1.112 1.12 1.112ZM38.962 37.614c.436 0 .79-.35.79-.784a.787.787 0 0 0-.79-.783c-.436 0-.79.35-.79.783 0 .433.354.784.79.784ZM39.922 35.462c.193 0 .35-.156.35-.348a.349.349 0 0 0-.35-.347.349.349 0 0 0-.35.347c0 .192.157.348.35.348Z" fill="#111"/><path d="M45.882 20.99a57.219 57.219 0 0 0-5.09 5.167 31.79 31.79 0 0 1-5.31 4.86c-.22-.525-1.63-1.507-1.63-1.507s-3.14-2.133-5.2-3.81a31.78 31.78 0 0 1-3.14-2.975l-2-.109a22.62 22.62 0 0 0 12 8.769c.86-.14 3.28-1.855 5.09-3.254a57.44 57.44 0 0 0 6-5.862 6.314 6.314 0 0 0 1.14-1.984c-1.14.377-1.86.704-1.86.704Z" fill="#F06351"/><path d="m65.223 3.472-8.46 9.364-1.22-1.974L63.693 0l1.53 3.472ZM62.653 17.12l5.54-4.076-.78-3.71-5.4 4.771.64 3.016ZM59.923 48.972l6.13 3.154 3.01-2.321-6.69-2.728-2.45 1.895ZM1.95 5.922l3.07-3.333 9.29 8.927-1.22 2.262L1.95 5.922ZM7.38 16.149l-4.7-3.105-2.4 3.839 5.15 2.38 1.95-3.114ZM13.91 52.126l-4.55 3.323L12.16 59l4.02-3.988-2.27-2.886Z" fill="#FDC305"/><path d="M25.931 27.774s-3.81-1.428-5.21-1.815a3.788 3.788 0 0 0-4 .625 5.032 5.032 0 0 0-1.285 1.722 4.994 4.994 0 0 0-.445 2.097c.211.46.372.943.48 1.438.05.476-1.2.426-2 .426s-.92-1.428-.29-3.104c.491-1.29 1.1-2.531 1.82-3.71C9.55 28.27 0 34.777 0 34.777a46.196 46.196 0 0 1 8.19.238c5.25.526 5 4.632 5 4.632a38.924 38.924 0 0 1 5.63-1.1c2.121-.14 2.271 2.102 2.271 2.102l.53 3.83a18.248 18.248 0 0 1 2.65-2.342 6.095 6.095 0 0 1 4.38-1.29l-2.72-13.073Z" fill="#F06351"/><path d="M85.655 41.326a7.97 7.97 0 0 1-1.39-5.06v-7.312a8.092 8.092 0 0 1 1.37-5.108c.92-1.164 2.494-1.742 4.72-1.736 2.225.007 3.731.517 4.52 1.53a6.465 6.465 0 0 1 1.321 4.378v1.716h-4.113v-1.862a9.57 9.57 0 0 0-.13-1.462 1.626 1.626 0 0 0-.466-.927 1.557 1.557 0 0 0-1.143-.36 1.476 1.476 0 0 0-.862.134 1.44 1.44 0 0 0-.628.597 5.243 5.243 0 0 0-.338 2.145v9.281c-.045.735.088 1.47.388 2.145.143.243.356.44.612.567.256.126.544.177.828.145.28.038.565-.01.815-.14s.451-.333.576-.582c.24-.686.345-1.41.308-2.135v-1.95h4.113v1.687a6.969 6.969 0 0 1-1.222 4.494c-.874 1.073-2.384 1.6-4.53 1.6-2.146 0-3.825-.586-4.749-1.785ZM101.8 22.393h4.709l3.974 20.473h-3.914l-.706-4.523h-3.298l-.795 4.494h-3.974l4.004-20.444Zm3.626 13.376-1.252-8.228-1.241 8.228h2.493ZM113.534 25.474h-3.219v-3.081h10.65v3.08h-3.179v17.364h-4.262l.01-17.363Z" fill="#111"/><path d="M129.321 22.393h8.078v2.125h-5.167v6.756h4.193v2.018h-4.193v7.498h5.216v2.047h-8.127V22.393ZM139.793 22.393h1.987l5.961 13.58v-13.58h2.424v20.473h-1.857l-5.961-13.96v13.931h-2.464l-.09-20.444ZM153.375 22.393h8.067v2.125h-5.166v6.756h4.232v2.018h-4.192v7.498h5.186v2.047h-8.127V22.393ZM163.837 22.393h4.193a7.05 7.05 0 0 1 4.639 1.277c.994.848 1.481 2.233 1.481 4.153 0 2.6-.858 4.19-2.574 4.768l2.981 10.246h-2.822l-2.732-9.593h-2.255v9.593h-2.911V22.393Zm3.974 8.774a3.9 3.9 0 0 0 2.683-.74c.312-.363.545-.785.685-1.24a3.42 3.42 0 0 0 .129-1.403 5.595 5.595 0 0 0-.288-1.95 1.825 1.825 0 0 0-.388-.625 1.878 1.878 0 0 0-.605-.428 4.812 4.812 0 0 0-2.037-.34h-1.282v6.765l1.103-.039ZM178.065 41.326a8.88 8.88 0 0 1-1.262-5.216v-6.824a12.923 12.923 0 0 1 .497-3.9 4.371 4.371 0 0 1 1.728-2.35 5.961 5.961 0 0 1 3.339-.819 5.315 5.315 0 0 1 2.238.271c.718.25 1.371.65 1.914 1.172a6.727 6.727 0 0 1 1.272 4.514v.76h-2.732v-.633a10.928 10.928 0 0 0-.179-2.262 1.944 1.944 0 0 0-.755-1.2 3.026 3.026 0 0 0-1.709-.399 2.535 2.535 0 0 0-1.798.546 2.483 2.483 0 0 0-.765 1.443 14.195 14.195 0 0 0-.169 2.428v7.594a7.2 7.2 0 0 0 .586 3.374c.27.326.612.589 1.001.766a2.854 2.854 0 0 0 2.472-.049c.381-.192.712-.468.968-.805a7.774 7.774 0 0 0 .606-3.559v-1.443h-2.642v-2.018h5.265v10.12h-1.798l-.288-2.35a3.6 3.6 0 0 1-1.391 1.936 3.717 3.717 0 0 1-2.315.668 4.71 4.71 0 0 1-2.273-.368 4.62 4.62 0 0 1-1.81-1.397ZM193.981 35.623l-4.5-13.23h2.702l3.189 9.866 3.139-9.866h2.733l-4.471 13.23v7.214h-2.782l-.01-7.214Z" fill="#444"/></g><defs><clipPath id="a"><path fill="#fff" d="M0 0h202v59H0z"/></clipPath></defs></svg>