<svg xmlns="http://www.w3.org/2000/svg" xml:space="preserve" id="Шар_1" x="0" y="0" style="enable-background:new 0 0 101 18.6" version="1.1" viewBox="0 0 101 18.6"><style>.st0{fill:#111}.st1{fill:#444}</style><path d="M1.2 17.1C.3 15.8-.1 14.2 0 12.6V6.1c-.1-1.6.3-3.2 1.2-4.5C2 .5 3.4 0 5.3 0s3.2.5 3.9 1.4c.8 1.1 1.2 2.5 1.1 3.9v1.5H6.8V5.1c0-.4 0-.9-.1-1.3 0-.3-.2-.6-.4-.8-.2-.1-.3-.2-.5-.3h-.5c-.3 0-.5 0-.7.1-.3.1-.5.3-.6.5-.2.6-.3 1.3-.3 1.9v8.2c0 .7.1 1.3.3 1.9.1.2.3.4.5.5.3.2.5.2.8.2.2 0 .5 0 .7-.1.2-.1.4-.3.5-.5.2-.6.3-1.3.3-1.9v-1.7h3.6v1.5c.1 1.4-.3 2.8-1.1 4-.8 1-2.1 1.4-3.9 1.4s-3.4-.6-4.2-1.6zM15.2.3h4.1l3.4 18.2h-3.4l-.6-4h-2.8l-.7 4h-3.4L15.2.3zm3.1 11.8-1.1-7.3-1.1 7.3h2.2zM25.3 3h-2.8V.3h9.2V3H29v15.4h-3.7V3z" class="st0"/><path d="M38.9.3h7v1.9h-4.5v6H45V10h-3.6v6.7h4.5v1.8h-7V.3zM48 .3h1.7l5.1 12.1V.3h2.1v18.2h-1.6L50.2 6v12.4H48V.3zM59.7.3h7v1.9h-4.5v6h3.7V10h-3.6v6.7h4.5v1.8h-7V.3zM68.7.3h3.6c1.4-.1 2.8.3 4 1.1.9.8 1.3 2 1.3 3.7 0 2.3-.7 3.7-2.2 4.2l2.6 9.1h-2.4l-2.4-8.5h-1.9v8.5h-2.5V.3zM72.1 8c.8.1 1.7-.2 2.3-.7.3-.3.5-.7.6-1.1.1-.4.2-.8.1-1.2 0-.6-.1-1.2-.2-1.7l-.3-.6c-.1-.2-.3-.3-.5-.4-.6-.2-1.2-.3-1.8-.3h-1.1v6h.9zM81 17.1c-.8-1.4-1.2-3-1.1-4.6V6.4c0-1.2.1-2.3.4-3.5.2-.8.8-1.6 1.5-2.1.9-.5 1.9-.8 2.9-.7.7-.1 1.3 0 1.9.2.6.2 1.2.6 1.7 1 .8 1.2 1.2 2.6 1.1 4V6H87v-.5c0-.7 0-1.3-.2-2-.1-.4-.3-.8-.7-1.1-.4-.3-1-.4-1.5-.4-.6 0-1.1.1-1.6.5-.4.3-.6.8-.7 1.3-.1.7-.2 1.4-.1 2.2v6.7c-.1 1 .1 2 .5 3 .2.3.5.5.9.7.3.2.7.2 1.1.2.4 0 .7-.1 1.1-.3.3-.2.6-.4.8-.7.4-1 .6-2.1.5-3.2v-1.3H85V9.4h4.5v9H88l-.2-2.1c-.2.7-.6 1.3-1.2 1.7-.6.4-1.3.6-2 .6-.7.1-1.3-.1-2-.3-.7-.3-1.2-.7-1.6-1.2zM94.7 12 90.8.3h2.3L95.9 9 98.6.2h2.4L97.1 12v6.4h-2.4V12z" class="st1"/></svg>