<svg width="23" height="16" viewBox="0 0 23 16"><path d="M.4 3.5c0-.6.4-1 1.3-1H5c.2 0 .4.1.4.3.3.9.7 1.7 1.1 2.4.4.7 1 1.4 1.6 2.3.1.1.2.2.3.2.1 0 .2 0 .2-.1l.1-.2V4.2c0-.2-.1-.4-.2-.4 0-.2-.3-.2-.6-.3-.3 0-.4-.2-.4-.4V3c.3-.8 1.2-1.2 2.6-1.2h1.2c.6 0 1 .1 1.4.3.4.2.5.6.5 1.1v4.2c.1.1.2.1.3.1.2 0 .4-.1.6-.3 1.6-1.9 2.5-3.1 2.6-3.8v-.1c.1-.2.3-.3.5-.5l.6-.3H21.6c.3 0 .5.1.7.3.2.2.2.2.2.3v.5c-.1.5-.4 1-.8 1.6-.4.6-.9 1.2-1.6 1.8-.6.7-1 1.1-1.2 1.3-.1.1-.2.3-.2.4 0 .1.1.2.2.3l3.2 3.4c.2.2.3.4.3.6 0 .3-.1.5-.4.7-.3.2-.6.3-.9.3h-3.9c-.3 0-.6-.1-.9-.3-.1-.1-.8-.8-2.1-2.2-.1-.1-.2-.2-.3-.2-.1.2-.1.5-.2.8-.1.4-.2.6-.2.8l-.1.3c-.1.4-.5.7-.9.8h-2.4c-1.2 0-2.4-.5-3.6-1.4-1.2-.9-2.3-2.1-3.3-3.6S1.4 6 .5 4c0-.1-.1-.3-.1-.5zm13.2 4.8c-.3 0-.6-.1-.8-.2-.2-.1-.4-.3-.4-.6V3.3c0-.2-.1-.4-.2-.5-.1-.1-.4-.2-.8-.2h-1.2c-.7 0-1.2.1-1.5.3.6.3 1 .7 1 1.2v3.2c0 .3-.2.6-.4.8-.3.2-.6.3-.9.3-.4 0-.8-.2-1-.5-1.1-1.4-2-2.8-2.5-4.1l-.3-.5H1.4v.5l.5 1c1.2 2.6 2.6 4.7 4 6.3 1.4 1.5 2.8 2.3 4.2 2.3h2.2c.1 0 .2 0 .2-.1s.1-.1.1-.2v-.2l.4-1.6c.1-.2.2-.4.3-.4.2-.1.4-.2.6-.2.4 0 .7.2 1.1.5l1.9 2c.1.2.2.2.4.2h3.6c.4 0 .7-.1.7-.3 0-.1 0-.1-.1-.2l-3.2-3.3c-.2-.3-.4-.5-.4-.8 0-.3.1-.6.4-.8.2-.2.6-.7 1.1-1.2.5-.5 1-1 1.4-1.6.4-.5.7-.9.8-1.3l.1-.2v-.2h-3.4c-.2.1-.4.2-.5.3l-.3.2c-.4.8-1.3 2.1-2.9 3.9-.3.2-.6.4-1 .4z" style="fill:currentColor"/></svg>
