<svg xmlns="http://www.w3.org/2000/svg" xml:space="preserve" viewBox="0 0 23 23"><path fill="#666" d="M11.5 0c1.9 0 3.5 0 4.7.1 1 0 2 .2 2.8.5.8.3 1.5.7 2 1.3.6.6 1 1.3 1.3 2 .3.8.5 1.7.5 2.8.2 1.3.2 2.9.2 4.8s0 3.5-.1 4.7c0 1-.2 2-.5 2.8-.3.8-.7 1.5-1.3 2-.6.6-1.3 1-2 1.3-.8.3-1.7.5-2.8.5-1.3.2-2.9.2-4.8.2s-3.5 0-4.7-.1c-1 0-2-.2-2.8-.5-.8-.3-1.5-.7-2-1.3-.6-.6-1-1.3-1.3-2-.3-.8-.5-1.7-.5-2.8C0 15 0 13.4 0 11.5S0 8 .1 6.8c0-1 .2-2 .5-2.8.3-.8.7-1.5 1.3-2s1.3-1 2-1.3C4.7.4 5.6.2 6.7.2 8 0 9.6 0 11.5 0zm0 1.5c-2 0-3.7 0-4.9.1-.8 0-1.6.1-2.3.4-1.1.4-1.9 1.2-2.3 2.3-.3.7-.4 1.5-.4 2.3 0 1.3-.1 2.9-.1 4.9 0 2 0 3.7.1 4.9 0 .8.2 1.6.4 2.3.5 1.1 1.2 1.9 2.3 2.3.7.3 1.5.4 2.3.4 1.3 0 2.9.1 4.9.1 2 0 3.7 0 4.9-.1.8 0 1.6-.2 2.3-.4 1.1-.5 1.9-1.2 2.3-2.3.3-.7.4-1.5.4-2.3 0-1.3.1-2.9.1-4.9 0-2 0-3.7-.1-4.9 0-.8-.2-1.6-.4-2.3-.5-1.1-1.2-1.9-2.3-2.3-.7-.3-1.5-.4-2.3-.4-1.2-.1-2.9-.1-4.9-.1zm0 14.6c1.3 0 2.4-.4 3.3-1.3.9-.9 1.3-2 1.3-3.3 0-1.3-.4-2.4-1.3-3.3-.9-.9-2-1.3-3.3-1.3-1.3 0-2.4.4-3.3 1.3-.9.9-1.3 2-1.3 3.3 0 1.3.4 2.4 1.3 3.3.9.9 2 1.3 3.3 1.3zm0-10.5c1.6 0 3 .6 4.2 1.7 1.1 1.1 1.7 2.5 1.7 4.2 0 1.6-.6 3-1.7 4.2-1.1 1.1-2.5 1.7-4.2 1.7-1.6 0-3-.6-4.2-1.7-1.1-1.1-1.7-2.5-1.7-4.2 0-1.6.6-3 1.7-4.2s2.6-1.7 4.2-1.7zm7.5-.2c0 .4-.1.7-.4 1-.3.3-.6.4-1 .4s-.7-.1-1-.4c-.3-.3-.4-.6-.4-1s.1-.7.4-1c.3-.3.6-.4 1-.4s.7.1 1 .4c.3.3.4.6.4 1z"/></svg>