<svg xmlns="http://www.w3.org/2000/svg" xml:space="preserve" viewBox="0 0 29 17"><path fill="#666" d="M0 2.3C0 1.5.6 1 1.7 1H6c.3 0 .5.1.6.4.3 1.2.8 2.3 1.4 3.2.5.9 1.3 2 2.1 3.2.1.1.2.2.4.2.1 0 .2-.1.3-.2l.1-.3V3.1c0-.3-.1-.5-.2-.6-.2-.1-.5-.2-.9-.2s-.5-.2-.5-.5v-.2C9.7.6 10.8 0 12.7 0h1.6c.7 0 1.3.2 1.8.5s.7.8.7 1.5v5.7c.1.1.3.1.4.1.3 0 .5-.2.7-.5C20 4.7 21.1 3 21.3 2.1c0 0 0-.1.1-.1.1-.3.4-.5.7-.7.3-.2.6-.3.8-.4.1.1.2.1.3.1h4.7c.4 0 .7.2.9.5.1.1.1.2.2.3v.8c-.1.7-.5 1.4-1 2.2-.5.8-1.2 1.6-2.1 2.5-.8.9-1.4 1.5-1.6 1.8-.2.2-.3.4-.3.6 0 .1.1.3.2.5l4.2 4.6c.2.3.3.6.3.9 0 .4-.2.7-.5 1-.3.3-.8.4-1.2.4h-5.1c-.4 0-.8-.2-1.2-.5-.1-.1-1-1.1-2.7-3-.1-.1-.2-.2-.4-.3-.1.3-.2.7-.3 1.2-.1.5-.2.9-.3 1.1l-.1.4c-.2.6-.6.9-1.2 1.1H12.5c-1.6 0-3.2-.6-4.7-1.9s-3-2.9-4.3-4.9S1.2 5.8.1 3.1C0 2.9 0 2.6 0 2.3zm17.2 6.6c-.4 0-.8-.1-1.1-.3-.3-.2-.5-.5-.5-.8V2c0-.3-.1-.6-.3-.7-.2-.1-.5-.2-1-.2l-1.6.1c-.8 0-1.4.1-1.9.4.8.4 1.3.9 1.3 1.7v4.4c0 .4-.2.8-.6 1-.3.3-.7.4-1.1.4-.6 0-1-.2-1.3-.7-1.5-2-2.6-3.9-3.3-5.6l-.3-.7L1.7 2h-.4v.2c0 .2 0 .3.1.5L2 4.1c1.6 3.6 3.3 6.5 5.2 8.6 1.9 2.1 3.7 3.1 5.5 3.1h2.9c.1 0 .2 0 .3-.1.1-.1.1-.2.1-.3l.1-.3.5-2.2c.2-.3.3-.5.4-.6.2-.2.5-.3.7-.3.5 0 .9.2 1.4.7l2.4 2.7c.2.2.3.3.5.3h4.7c.6 0 .9-.1.9-.4 0-.1 0-.2-.1-.3l-4.2-4.6c-.3-.4-.5-.7-.5-1.1 0-.4.2-.8.5-1.2.2-.3.7-.9 1.4-1.7.7-.8 1.3-1.5 1.9-2.2.5-.7.9-1.3 1.1-1.8l.1-.3v-.4h-4.5c-.3.1-.5.3-.7.5l-.2.8c-.5 1.2-1.7 2.9-3.8 5.4-.4.3-.8.5-1.4.5z"/></svg>